<svg width="318" height="67" viewBox="0 0 318 67" fill="none" xmlns="http://www.w3.org/2000/svg"><g clip-path="url(#clip0)"><path fill-rule="evenodd" clip-rule="evenodd" d="M91.45 19.664l-2.782 6.33h5.565l-2.783-6.33zm4.842 9.411h-.708l-1.12-2.528h-6.027l-1.12 2.528h-.708l4.71-10.5h.262l4.71 10.5zm8.01.235c-2.866 0-4.134-2.043-4.134-5.225v-5.392h.66v4.99c0 3.132.888 5.024 3.457 5.024 2.586 0 3.491-1.859 3.491-4.99v-5.024h.658v5.425c0 3.166-1.251 5.192-4.132 5.192zm15.139-9.327c-.609-.436-1.531-.821-2.519-.821-1.482 0-2.585.636-2.585 1.825 0 2.814 5.714 1.591 5.714 5.258 0 1.826-1.499 2.998-3.672 2.998-1.202 0-2.289-.335-3.409-1.14l.346-.5c1.071.769 2.14 1.054 3.063 1.054 1.811 0 3.03-.938 3.03-2.378 0-3.198-5.715-1.942-5.715-5.292 0-1.574 1.368-2.445 3.196-2.445a4.71 4.71 0 012.601.77l-.05.67zm8.389-.703v9.796h-.659v-9.797h-3.128l.147-.586h6.753v.586h-3.113zm10.098-.018h-1.547v4.488h1.316c2.027 0 3.097-.686 3.097-2.227 0-1.524-1.004-2.26-2.866-2.26zm5.583 9.898c-3.145 0-3.145-4.84-5.862-4.84h-1.268v4.756h-.658V18.693h2.157c2.24 0 3.59.938 3.59 2.83 0 1.54-1.07 2.445-2.669 2.613 1.845.553 2.422 4.488 4.858 4.42l-.148.604zm8.208-9.496l-2.782 6.33h5.565l-2.783-6.33zm4.842 9.411h-.708l-1.12-2.528h-6.027l-1.121 2.528h-.708l4.71-10.5h.263l4.711 10.5zm4.535.001V18.693h.659v9.78h4.743l-.149.603h-5.253zm10.183 0h.658V18.693h-.658v10.383zm10.031-9.412l-2.782 6.33h5.565l-2.783-6.33zm4.841 9.411h-.708l-1.119-2.528h-6.027l-1.12 2.528h-.709l4.71-10.5h.263l4.71 10.5zm12.835.067l-7.64-9.042v8.976h-.658V18.608h.213l7.657 9.093v-9.01h.659v10.45h-.231zm18.173-9.159c-.608-.436-1.531-.821-2.519-.821-1.482 0-2.585.636-2.585 1.825 0 2.814 5.715 1.591 5.715 5.258 0 1.826-1.5 2.998-3.673 2.998-1.202 0-2.288-.335-3.408-1.14l.346-.5c1.07.769 2.14 1.054 3.062 1.054 1.812 0 3.03-.938 3.03-2.378 0-3.198-5.714-1.942-5.714-5.292 0-1.574 1.368-2.445 3.195-2.445 1.02 0 1.927.319 2.601.77l-.05.67zm5.096 3.885c0-3.4 2.24-5.326 5.219-5.326 1.418 0 2.702.57 3.377 1.056l-.05.653c-.642-.436-1.827-1.122-3.327-1.122-2.567 0-4.543 1.691-4.543 4.722 0 3.047 1.943 4.789 4.543 4.789 1.4 0 2.587-.553 3.411-1.139l.296.57c-1.169.804-2.372 1.155-3.707 1.155-2.979 0-5.219-1.96-5.219-5.358zm21.283 5.208v-5.46h-6.916v5.46h-.658V18.693h.658v4.337h6.916v-4.337h.676v10.383h-.676zm10.959-9.947c-2.504 0-4.496 1.674-4.496 4.739 0 3.097 1.992 4.756 4.496 4.756 2.485 0 4.494-1.659 4.494-4.74 0-3.08-2.009-4.755-4.494-4.755zm0 10.098c-2.884 0-5.172-1.91-5.172-5.36 0-3.432 2.288-5.325 5.172-5.325 2.865 0 5.17 1.893 5.17 5.343 0 3.432-2.305 5.341-5.17 5.341zm14.959-10.098c-2.503 0-4.495 1.674-4.495 4.739 0 3.097 1.992 4.756 4.495 4.756 2.486 0 4.494-1.659 4.494-4.74 0-3.08-2.008-4.755-4.494-4.755zm0 10.098c-2.882 0-5.171-1.91-5.171-5.36 0-3.432 2.289-5.325 5.171-5.325 2.864 0 5.17 1.893 5.17 5.343 0 3.432-2.306 5.341-5.17 5.341zm10.285-.151V18.693h.658v9.78h4.742l-.149.603h-5.251zm21.711-9.947c-2.503 0-4.495 1.674-4.495 4.739 0 3.097 1.992 4.756 4.495 4.756 2.487 0 4.495-1.659 4.495-4.74 0-3.08-2.008-4.755-4.495-4.755zm0 10.098c-2.882 0-5.171-1.91-5.171-5.36 0-3.432 2.289-5.325 5.171-5.325 2.866 0 5.171 1.893 5.171 5.343 0 3.432-2.305 5.341-5.171 5.341zm10.943-5.644v5.475h-.658V18.693h5.45v.586h-4.792v3.718h3.54v.586h-3.54z" fill="#B18A4B" stroke="#B18A4B"/><path fill-rule="evenodd" clip-rule="evenodd" d="M93.921 42.656l4.147-6.357h.39l2.22 12.396h-2.825l-1.05-6.396-2.882 4.297L91.02 42.3l-1.052 6.396h-2.824l2.2-12.396h.41l4.167 6.357zm12.571 6.039V36.418h6.97v2.258h-4.087v2.277h2.997v2.276h-2.997v3.19h5.646l-.525 2.276h-8.004zm17.519-10.039h-.739v7.762h.739c2.94 0 4.342-1.722 4.342-3.881 0-2.158-1.402-3.881-4.342-3.881zm-.194 10.039h-3.428V36.418h3.428c5.257 0 7.399 2.753 7.399 6.138 0 3.367-2.142 6.139-7.399 6.139zm13.312 0h2.883V36.418h-2.883v12.277zm13.997-10.019v10.019h-2.843v-10.02h-2.942l.526-2.257h7.964v2.258h-2.705zm11.814 2.396l-1.577 3.563h3.154l-1.577-3.563zm6.406 7.623h-3.096l-.915-1.98h-4.79l-.876 1.98h-3.136l6.173-12.593h.468l6.172 12.593zm8.483-10.019v10.019h-2.841v-10.02h-2.941l.525-2.257h7.964v2.258h-2.707zm8.233 10.019h2.882V36.418h-2.882v12.277zm15.165-10.158c-1.889 0-3.447 1.485-3.447 4 0 2.574 1.558 4 3.447 4 1.908 0 3.447-1.426 3.447-3.98 0-2.535-1.539-4.02-3.447-4.02zm0 10.297c-3.544 0-6.367-2.298-6.367-6.297 0-3.98 2.823-6.278 6.367-6.278 3.543 0 6.386 2.298 6.386 6.297 0 3.98-2.843 6.278-6.386 6.278zm22.638.019l-7.457-6.989v6.831h-2.883V36.24h.467l7.459 6.99v-6.812h2.881v12.435h-.467zm17.03-2.673c-.741-1.188-1.422-2.317-2.22-3.524-1.286.099-2.046.872-2.046 2.059 0 1.05.994 2.02 2.415 2.02.683 0 1.324-.199 1.851-.555zm1.128 1.724c-.798.613-1.927.93-3.134.93-2.842 0-5.005-1.604-5.005-4.12 0-2.197 1.441-3.544 3.641-3.88l-2.473-3.92.177-.496h6.736l.487 2.08h-3.582c.973 1.544 3.486 5.642 3.622 5.86a4.406 4.406 0 00.116-2.494h2.356c.194 1.604-.078 3.267-1.11 4.554l1.266 2.04-2.474.435-.623-.99zm17.108-6.12l2.901-5.366h3.193l-4.652 7.722v4.555h-2.883V44.22c-1.382-2.258-3.33-5.604-4.672-7.802h3.153l2.96 5.366zm16.234-3.247c-1.889 0-3.447 1.485-3.447 4 0 2.574 1.558 4 3.447 4 1.908 0 3.447-1.426 3.447-3.98 0-2.535-1.539-4.02-3.447-4.02zm0 10.297c-3.544 0-6.367-2.298-6.367-6.297 0-3.98 2.823-6.278 6.367-6.278 3.543 0 6.387 2.298 6.387 6.297 0 3.98-2.844 6.278-6.387 6.278zm23.047-1.504c-.837.534-2.745 1.504-4.869 1.504-3.738 0-6.464-2.178-6.464-6.297 0-4.099 2.844-6.257 6.504-6.257 2.453 0 4.107 1.129 4.107 1.129l-.194 2.356s-1.596-1.248-3.698-1.248c-2.046 0-3.837 1.366-3.837 4s1.693 4.06 3.7 4.06c.914 0 1.655-.337 1.869-.397v-4.257h2.882v5.406zm11.248-6.258l-1.577 3.563h3.154l-1.577-3.563zm6.406 7.623h-3.096l-.915-1.98h-4.79l-.876 1.98h-3.136l6.173-12.593h.469l6.171 12.593zm-240.64 9.377h.746V9.548h-.746v48.524z" fill="#B18A4B"/><path d="M5.703 50.653a3.006 3.006 0 00-3.169-1.612C.887 49.315-.229 50.895.04 52.57c.27 1.675 1.824 2.81 3.47 2.536 1.323-.22 2.303-1.28 2.498-2.556-.276.85-1.075 1.54-2.101 1.712-1.407.234-2.712-.594-2.914-1.85-.203-1.257.774-2.465 2.181-2.7 1.028-.17 2 .225 2.529.941z" fill="url(#paint0_radial)"/><path d="M3.74 50.722c.76-.127 1.463.032 1.846.372a.788.788 0 00-.342-.017c-.39.064-.66.39-.606.728.054.337.414.559.802.493a.802.802 0 00.32-.126c-.258.445-.872.824-1.633.95-1.075.18-2.033-.213-2.14-.876-.107-.663.678-1.345 1.753-1.524z" fill="url(#paint1_radial)"/><path d="M33.53 34.173c2.366-.79 4.073-3.056 4.073-5.725 0-3.33-2.654-6.027-5.927-6.027-3.272 0-5.927 2.698-5.927 6.027 0 2.67 1.708 4.935 4.074 5.725-1.53-.814-2.592-2.603-2.592-4.68 0-2.842 1.99-5.147 4.445-5.147s4.446 2.305 4.446 5.148c0 2.076-1.063 3.865-2.592 4.679z" fill="url(#paint2_radial)"/><path d="M32.73 33.803c.767-.646 1.293-1.977 1.293-3.514 0-2.173-1.051-3.934-2.346-3.934-1.296 0-2.347 1.76-2.347 3.934 0 1.537.526 2.868 1.293 3.514a1.65 1.65 0 01-.14-.668c0-.785.535-1.423 1.194-1.423.658 0 1.193.638 1.193 1.423 0 .241-.05.47-.14.668z" fill="url(#paint3_radial)"/><path d="M33.081 9.396c1.793-.6 3.087-2.316 3.087-4.34 0-2.522-2.011-4.567-4.491-4.567-2.481 0-4.492 2.045-4.492 4.567 0 2.024 1.294 3.74 3.087 4.34-1.159-.617-1.964-1.974-1.964-3.547 0-2.154 1.508-3.901 3.369-3.901 1.86 0 3.368 1.747 3.368 3.901 0 1.573-.805 2.93-1.964 3.547z" fill="url(#paint4_radial)"/><path d="M32.475 9.115c.581-.49.98-1.498.98-2.663 0-1.647-.797-2.981-1.778-2.981-.982 0-1.778 1.334-1.778 2.98 0 1.166.398 2.174.98 2.664a1.238 1.238 0 01-.107-.507c0-.594.405-1.078.905-1.078.499 0 .904.484.904 1.078 0 .183-.04.356-.106.507z" fill="url(#paint5_radial)"/><path d="M35.323 16.191a3.703 3.703 0 01-2.506 3.523c.941-.5 1.595-1.601 1.595-2.879 0-1.75-1.225-3.168-2.736-3.168-1.51 0-2.735 1.419-2.735 3.168 0 1.278.653 2.379 1.595 2.88a3.702 3.702 0 01-2.507-3.524c0-2.048 1.634-3.71 3.647-3.71 2.014 0 3.647 1.662 3.647 3.71z" fill="url(#paint6_radial)"/><path d="M33.12 17.324c0 .946-.323 1.765-.795 2.163.054-.123.086-.263.086-.412 0-.482-.33-.875-.734-.875-.406 0-.735.393-.735.875 0 .149.031.289.086.412-.472-.398-.795-1.217-.795-2.163 0-1.337.646-2.42 1.444-2.42.797 0 1.443 1.083 1.443 2.42z" fill="url(#paint7_radial)"/><path d="M21.134 20.143a3.756 3.756 0 01-.625 4.302c.608-.886.688-2.17.108-3.303-.794-1.552-2.525-2.236-3.864-1.527-1.34.709-1.784 2.542-.99 4.094.58 1.133 1.66 1.804 2.722 1.807a3.631 3.631 0 01-3.823-1.95c-.93-1.818-.234-4.057 1.553-5.002 1.787-.945 3.99-.238 4.919 1.58z" fill="url(#paint8_radial)"/><path d="M21.78 9.779a3.753 3.753 0 01-.889 4.253c.661-.845.82-2.12.312-3.29-.697-1.599-2.381-2.392-3.762-1.77-1.382.622-1.937 2.423-1.24 4.023.508 1.168 1.544 1.906 2.604 1.977a3.639 3.639 0 01-3.695-2.19c-.815-1.873.017-4.064 1.859-4.893 1.842-.83 3.996.017 4.811 1.89z" fill="url(#paint9_radial)"/><path d="M19.969 24.474c.238-.574.153-1.453-.276-2.292-.607-1.186-1.673-1.844-2.38-1.47-.707.374-.789 1.639-.182 2.825.43.84 1.088 1.415 1.687 1.546a1.003 1.003 0 01-.263-.324c-.22-.43-.105-.932.254-1.122.36-.19.83.004 1.05.432.066.132.102.27.11.405z" fill="url(#paint10_radial)"/><path d="M10.853 23.67a3.757 3.757 0 01.544 4.312c.35-1.02.084-2.278-.775-3.209-1.178-1.275-3.026-1.457-4.127-.406-1.101 1.051-1.04 2.938.138 4.214.86.931 2.077 1.28 3.1.989a3.603 3.603 0 01-4.198-.824 3.754 3.754 0 01.162-5.243 3.605 3.605 0 015.156.166z" fill="url(#paint11_radial)"/><path d="M10.01 26.028c.636.69.951 1.512.875 2.131a1 1 0 00-.214-.36c-.325-.352-.83-.409-1.125-.127-.295.282-.271.797.054 1.15.1.108.217.188.34.24-.613.038-1.4-.334-2.036-1.024-.9-.974-1.158-2.215-.577-2.77.582-.555 1.782-.214 2.682.76z" fill="url(#paint12_radial)"/><path d="M20.217 11.723c.376.864.406 1.746.133 2.304a1.017 1.017 0 00-.085-.411c-.192-.442-.65-.666-1.02-.498-.371.166-.515.66-.323 1.102a.984.984 0 00.242.34c-.59-.168-1.211-.785-1.588-1.65-.533-1.222-.372-2.48.357-2.808.728-.327 1.751.398 2.284 1.62z" fill="url(#paint13_radial)"/><path d="M7.895 38.78c.008-1.557-.958-3.013-2.49-3.534-1.91-.65-3.978.399-4.616 2.341-.639 1.942.392 4.044 2.302 4.694a3.614 3.614 0 004.081-1.3c-.766.749-2 1.03-3.192.625-1.63-.555-2.566-2.186-2.087-3.642.48-1.458 2.191-2.19 3.823-1.634 1.19.405 2.01 1.385 2.179 2.45z" fill="url(#paint14_radial)"/><path d="M7.527 39.183c-.221-.58-.883-1.152-1.765-1.452-1.247-.424-2.462-.145-2.716.624-.252.77.553 1.736 1.8 2.16.882.3 1.748.249 2.27-.08a.973.973 0 01-.411-.048c-.45-.153-.712-.595-.584-.986.129-.39.6-.584 1.05-.43a.987.987 0 01.356.212z" fill="url(#paint15_radial)"/><path d="M16.638 46.669c-.142-1.719-1.35-3.225-3.089-3.645-2.168-.524-4.343.84-4.857 3.044-.515 2.205.825 4.417 2.993 4.94 1.74.42 3.483-.373 4.37-1.843-.77.903-2.103 1.337-3.455 1.01-1.852-.447-3.04-2.15-2.655-3.803.387-1.654 2.201-2.633 4.053-2.185 1.352.326 2.351 1.323 2.64 2.482z" fill="url(#paint16_radial)"/><path d="M14.186 45.726c1 .242 1.785.805 2.085 1.423a1.058 1.058 0 00-.413-.199c-.51-.124-1.01.136-1.114.58-.104.444.228.905.74 1.028.156.037.313.04.456.01-.541.416-1.49.56-2.492.318-1.416-.341-2.398-1.326-2.194-2.199.204-.872 1.517-1.303 2.932-.961z" fill="url(#paint17_radial)"/><path d="M16.617 55.03a3.688 3.688 0 00-4.292-.863c-1.872.877-2.691 3.13-1.83 5.034.861 1.904 3.078 2.738 4.95 1.861 1.502-.703 2.327-2.292 2.148-3.876-.054 1.104-.782 2.193-1.95 2.74-1.599.747-3.42.196-4.065-1.232-.646-1.427.127-3.192 1.726-3.94 1.167-.546 2.453-.4 3.313.276z" fill="url(#paint18_radial)"/><path d="M42.3 14.032a3.753 3.753 0 01-.89-4.253c.816-1.873 2.97-2.72 4.812-1.89 1.841.829 2.674 3.02 1.858 4.893a3.639 3.639 0 01-3.695 2.19c1.06-.071 2.097-.809 2.606-1.977.695-1.6.14-3.4-1.241-4.023-1.381-.622-3.066.171-3.763 1.77-.508 1.17-.35 2.445.313 3.29z" fill="url(#paint19_radial)"/><path d="M42.974 11.723c-.377.864-.407 1.746-.134 2.304a1.009 1.009 0 01.085-.411c.192-.442.65-.666 1.02-.498.37.166.516.66.323 1.102a.991.991 0 01-.242.34c.59-.168 1.212-.785 1.588-1.65.532-1.222.373-2.48-.356-2.808-.73-.327-1.752.398-2.284 1.62z" fill="url(#paint20_radial)"/><path d="M57.786 35.246c-1.532.521-2.5 1.977-2.491 3.535.169-1.066.988-2.046 2.18-2.45 1.631-.556 3.343.175 3.822 1.633.48 1.456-.455 3.087-2.087 3.642-1.191.405-2.426.124-3.19-.625a3.613 3.613 0 004.08 1.3c1.91-.65 2.941-2.752 2.302-4.694-.639-1.942-2.706-2.99-4.616-2.341z" fill="url(#paint21_radial)"/><path d="M42.057 20.143a3.757 3.757 0 00.625 4.302c-.608-.886-.688-2.17-.108-3.303.794-1.552 2.524-2.236 3.864-1.527 1.34.709 1.783 2.542.99 4.094-.58 1.133-1.66 1.804-2.722 1.807a3.631 3.631 0 003.822-1.95c.93-1.818.234-4.057-1.552-5.002-1.788-.945-3.99-.238-4.92 1.58z" fill="url(#paint22_radial)"/><path d="M21.112 31.778c1.436 1.508 1.691 3.737.78 5.5.427-1.31.063-2.912-1.054-4.084-1.53-1.605-3.894-1.8-5.28-.433-1.386 1.366-1.27 3.776.26 5.38 1.117 1.173 2.68 1.592 3.981 1.2a4.604 4.604 0 01-5.38-.967c-1.792-1.879-1.745-4.879.102-6.7a4.607 4.607 0 016.59.104z" fill="url(#paint23_radial)"/><path d="M16.62 55.592c-.565-.276-1.452-.23-2.317.174-1.222.572-1.936 1.646-1.596 2.4.342.753 1.61.9 2.831.33.864-.406 1.475-1.062 1.637-1.678a1.004 1.004 0 01-.34.257c-.44.207-.94.064-1.114-.319-.173-.383.045-.862.486-1.069a.998.998 0 01.413-.095z" fill="url(#paint24_radial)"/><path d="M20.08 34.81c.828.87 1.247 1.912 1.162 2.705a1.267 1.267 0 00-.281-.455c-.422-.444-1.067-.506-1.44-.14-.37.367-.33 1.025.093 1.468.129.136.28.236.438.3-.78.061-1.794-.398-2.62-1.266-1.17-1.227-1.525-2.806-.793-3.527.732-.721 2.272-.311 3.442.916z" fill="url(#paint25_radial)"/><path d="M43.498 22.182c-.43.84-.514 1.718-.276 2.292.007-.134.043-.273.11-.405.22-.428.69-.623 1.05-.432.359.19.472.692.253 1.122a.987.987 0 01-.263.324c.6-.131 1.258-.707 1.687-1.546.607-1.186.525-2.45-.182-2.825-.707-.374-1.772.284-2.38 1.47z" fill="url(#paint26_radial)"/><path d="M52.337 23.67a3.758 3.758 0 00-.544 4.312c-.349-1.02-.084-2.278.776-3.209 1.177-1.275 3.025-1.457 4.126-.406 1.102 1.051 1.04 2.938-.137 4.214-.86.931-2.078 1.28-3.101.989a3.603 3.603 0 004.199-.824 3.753 3.753 0 00-.163-5.243 3.605 3.605 0 00-5.156.166z" fill="url(#paint27_radial)"/><path d="M53.181 26.028c-.636.69-.952 1.512-.875 2.131a.99.99 0 01.214-.36c.325-.352.829-.409 1.124-.127.296.282.272.797-.053 1.15a.98.98 0 01-.34.24c.612.038 1.399-.334 2.035-1.024.9-.974 1.159-2.215.577-2.77-.58-.555-1.782-.214-2.681.76z" fill="url(#paint28_radial)"/><path d="M41.298 37.278c-.911-1.763-.656-3.992.78-5.5a4.607 4.607 0 016.591-.105c1.848 1.822 1.894 4.823.103 6.701a4.604 4.604 0 01-5.38.968c1.3.39 2.863-.028 3.98-1.2 1.53-1.605 1.647-4.015.26-5.381-1.385-1.367-3.75-1.172-5.28.433-1.117 1.172-1.48 2.773-1.054 4.084z" fill="url(#paint29_radial)"/><path d="M55.664 39.183c.22-.58.882-1.152 1.764-1.452 1.247-.424 2.463-.145 2.716.624.253.77-.553 1.736-1.8 2.16-.882.3-1.748.249-2.269-.08a.96.96 0 00.41-.048c.451-.153.713-.595.584-.986-.128-.39-.599-.584-1.05-.43a.986.986 0 00-.355.212z" fill="url(#paint30_radial)"/><path d="M57.488 50.974a3.006 3.006 0 013.168-1.612c1.647.274 2.764 1.854 2.494 3.529-.27 1.675-1.824 2.81-3.47 2.536-1.322-.22-2.302-1.28-2.498-2.556.276.85 1.075 1.54 2.102 1.711 1.407.235 2.711-.594 2.913-1.85.203-1.256-.774-2.464-2.18-2.698-1.028-.171-2.001.224-2.53.94z" fill="url(#paint31_radial)"/><path d="M59.45 51.042c-.76-.126-1.462.033-1.845.372a.786.786 0 01.342-.017c.388.065.66.392.606.728-.055.337-.415.56-.803.494a.804.804 0 01-.32-.127c.258.446.873.824 1.633.951 1.076.18 2.034-.213 2.14-.877.107-.662-.678-1.344-1.753-1.524z" fill="url(#paint32_radial)"/><path d="M46.552 46.669c.143-1.719 1.35-3.225 3.089-3.645 2.168-.524 4.343.84 4.858 3.044.515 2.205-.826 4.417-2.993 4.94-1.74.42-3.484-.373-4.37-1.843.77.903 2.102 1.337 3.454 1.01 1.852-.447 3.041-2.15 2.655-3.803-.386-1.654-2.2-2.633-4.052-2.185-1.352.326-2.351 1.323-2.641 2.482z" fill="url(#paint33_radial)"/><path d="M46.92 47.15c.299-.62 1.084-1.182 2.085-1.424 1.415-.342 2.727.089 2.932.961.203.873-.779 1.858-2.194 2.2-1.002.241-1.951.097-2.492-.319.143.03.3.027.457-.01.51-.123.842-.584.739-1.029-.104-.443-.604-.703-1.115-.579a1.055 1.055 0 00-.413.2z" fill="url(#paint34_radial)"/><path d="M46.573 55.03a3.688 3.688 0 014.292-.863c1.872.877 2.692 3.13 1.83 5.034-.86 1.904-3.077 2.738-4.95 1.861-1.501-.703-2.325-2.292-2.148-3.876.056 1.104.782 2.193 1.95 2.74 1.599.747 3.42.196 4.066-1.232.646-1.427-.127-3.192-1.726-3.94-1.167-.546-2.453-.4-3.314.276z" fill="url(#paint35_radial)"/><path d="M46.57 55.592c.566-.276 1.453-.23 2.317.174 1.222.572 1.937 1.646 1.596 2.4-.341.753-1.608.9-2.83.33-.865-.406-1.476-1.062-1.637-1.678a.993.993 0 00.339.257c.441.207.941.064 1.114-.319.174-.383-.045-.862-.486-1.069a.993.993 0 00-.412-.095z" fill="url(#paint36_radial)"/><path d="M41.949 37.515c-.086-.793.334-1.836 1.16-2.704 1.17-1.227 2.711-1.637 3.443-.916.731.72.377 2.3-.793 3.527-.827.868-1.84 1.327-2.62 1.265.157-.063.308-.163.438-.3.423-.442.464-1.1.092-1.467-.372-.366-1.017-.304-1.44.14-.13.136-.223.293-.28.455z" fill="url(#paint37_radial)"/><path fill-rule="evenodd" clip-rule="evenodd" d="M28.5 45.95s-5.342 1.405-6.755-3.536c0 0 2.285-1.044 2.12 1.246 0 0 .331 2.123 4.635 2.29z" fill="#B18A4B"/><path fill-rule="evenodd" clip-rule="evenodd" d="M28.5 45.95s-4.326-1.335-3.62-5.197c0 0 1.856 0 .972 1.617 0 0 .437 1.95 2.648 3.58z" fill="#B18A4B"/><path fill-rule="evenodd" clip-rule="evenodd" d="M28.5 45.95s-4.006 1.716-6.358.283c0 0-.279 2.277 1.557 1.5 0 0 3.478-.097 4.8-1.784z" fill="#B18A4B"/><path fill-rule="evenodd" clip-rule="evenodd" d="M36.877 66.899s-8.316 1.077-9.29-3.799c-.706-3.53 1.146-6.806 5.677-12.709 4.53-5.903-.517-11.139-3.04-6.673 0 0 3.04 1.899-.516 4.722 0 0-.917 1.643-1.204 4.62 0 0-3.097-9.239 1.549-11.754 4.644-2.515 7.57 2.186 7.225 5.881-.344 3.696-10.51 12.552-.401 19.712z" fill="#B18A4B"/></g><defs><radialGradient id="paint0_radial" cx="0" cy="0" r="1" gradientUnits="userSpaceOnUse" gradientTransform="matrix(0 31 -31.8492 0 31.955 0)"><stop stop-color="#248195"/><stop offset="1" stop-color="#3D9DB0"/></radialGradient><radialGradient id="paint1_radial" cx="0" cy="0" r="1" gradientUnits="userSpaceOnUse" gradientTransform="matrix(0 31 -31.8492 0 31.955 0)"><stop stop-color="#248195"/><stop offset="1" stop-color="#3D9DB0"/></radialGradient><radialGradient id="paint2_radial" cx="0" cy="0" r="1" gradientUnits="userSpaceOnUse" gradientTransform="matrix(0 31 -31.8492 0 31.955 0)"><stop stop-color="#248195"/><stop offset="1" stop-color="#3D9DB0"/></radialGradient><radialGradient id="paint3_radial" cx="0" cy="0" r="1" gradientUnits="userSpaceOnUse" gradientTransform="matrix(0 31 -31.8492 0 31.955 0)"><stop stop-color="#248195"/><stop offset="1" stop-color="#3D9DB0"/></radialGradient><radialGradient id="paint4_radial" cx="0" cy="0" r="1" gradientUnits="userSpaceOnUse" gradientTransform="matrix(0 31 -31.8492 0 31.955 0)"><stop stop-color="#248195"/><stop offset="1" stop-color="#3D9DB0"/></radialGradient><radialGradient id="paint5_radial" cx="0" cy="0" r="1" gradientUnits="userSpaceOnUse" gradientTransform="matrix(0 31 -31.8492 0 31.955 0)"><stop stop-color="#248195"/><stop offset="1" stop-color="#3D9DB0"/></radialGradient><radialGradient id="paint6_radial" cx="0" cy="0" r="1" gradientUnits="userSpaceOnUse" gradientTransform="matrix(0 31 -31.8492 0 31.955 0)"><stop stop-color="#248195"/><stop offset="1" stop-color="#3D9DB0"/></radialGradient><radialGradient id="paint7_radial" cx="0" cy="0" r="1" gradientUnits="userSpaceOnUse" gradientTransform="matrix(0 31 -31.8492 0 31.955 0)"><stop stop-color="#248195"/><stop offset="1" stop-color="#3D9DB0"/></radialGradient><radialGradient id="paint8_radial" cx="0" cy="0" r="1" gradientUnits="userSpaceOnUse" gradientTransform="matrix(0 31 -31.8492 0 31.955 0)"><stop stop-color="#248195"/><stop offset="1" stop-color="#3D9DB0"/></radialGradient><radialGradient id="paint9_radial" cx="0" cy="0" r="1" gradientUnits="userSpaceOnUse" gradientTransform="matrix(0 31 -31.8492 0 31.955 0)"><stop stop-color="#248195"/><stop offset="1" stop-color="#3D9DB0"/></radialGradient><radialGradient id="paint10_radial" cx="0" cy="0" r="1" gradientUnits="userSpaceOnUse" gradientTransform="matrix(0 31 -31.8492 0 31.955 0)"><stop stop-color="#248195"/><stop offset="1" stop-color="#3D9DB0"/></radialGradient><radialGradient id="paint11_radial" cx="0" cy="0" r="1" gradientUnits="userSpaceOnUse" gradientTransform="matrix(0 31 -31.8492 0 31.955 0)"><stop stop-color="#248195"/><stop offset="1" stop-color="#3D9DB0"/></radialGradient><radialGradient id="paint12_radial" cx="0" cy="0" r="1" gradientUnits="userSpaceOnUse" gradientTransform="matrix(0 31 -31.8492 0 31.955 0)"><stop stop-color="#248195"/><stop offset="1" stop-color="#3D9DB0"/></radialGradient><radialGradient id="paint13_radial" cx="0" cy="0" r="1" gradientUnits="userSpaceOnUse" gradientTransform="matrix(0 31 -31.8492 0 31.955 0)"><stop stop-color="#248195"/><stop offset="1" stop-color="#3D9DB0"/></radialGradient><radialGradient id="paint14_radial" cx="0" cy="0" r="1" gradientUnits="userSpaceOnUse" gradientTransform="matrix(0 31 -31.8492 0 31.955 0)"><stop stop-color="#248195"/><stop offset="1" stop-color="#3D9DB0"/></radialGradient><radialGradient id="paint15_radial" cx="0" cy="0" r="1" gradientUnits="userSpaceOnUse" gradientTransform="matrix(0 31 -31.8492 0 31.955 0)"><stop stop-color="#248195"/><stop offset="1" stop-color="#3D9DB0"/></radialGradient><radialGradient id="paint16_radial" cx="0" cy="0" r="1" gradientUnits="userSpaceOnUse" gradientTransform="matrix(0 31 -31.8492 0 31.955 0)"><stop stop-color="#248195"/><stop offset="1" stop-color="#3D9DB0"/></radialGradient><radialGradient id="paint17_radial" cx="0" cy="0" r="1" gradientUnits="userSpaceOnUse" gradientTransform="matrix(0 31 -31.8492 0 31.955 0)"><stop stop-color="#248195"/><stop offset="1" stop-color="#3D9DB0"/></radialGradient><radialGradient id="paint18_radial" cx="0" cy="0" r="1" gradientUnits="userSpaceOnUse" gradientTransform="matrix(0 31 -31.8492 0 31.955 0)"><stop stop-color="#248195"/><stop offset="1" stop-color="#3D9DB0"/></radialGradient><radialGradient id="paint19_radial" cx="0" cy="0" r="1" gradientUnits="userSpaceOnUse" gradientTransform="matrix(0 31 -31.8492 0 31.955 0)"><stop stop-color="#248195"/><stop offset="1" stop-color="#3D9DB0"/></radialGradient><radialGradient id="paint20_radial" cx="0" cy="0" r="1" gradientUnits="userSpaceOnUse" gradientTransform="matrix(0 31 -31.8492 0 31.955 0)"><stop stop-color="#248195"/><stop offset="1" stop-color="#3D9DB0"/></radialGradient><radialGradient id="paint21_radial" cx="0" cy="0" r="1" gradientUnits="userSpaceOnUse" gradientTransform="matrix(0 31 -31.8492 0 31.955 0)"><stop stop-color="#248195"/><stop offset="1" stop-color="#3D9DB0"/></radialGradient><radialGradient id="paint22_radial" cx="0" cy="0" r="1" gradientUnits="userSpaceOnUse" gradientTransform="matrix(0 31 -31.8492 0 31.955 0)"><stop stop-color="#248195"/><stop offset="1" stop-color="#3D9DB0"/></radialGradient><radialGradient id="paint23_radial" cx="0" cy="0" r="1" gradientUnits="userSpaceOnUse" gradientTransform="matrix(0 31 -31.8492 0 31.955 0)"><stop stop-color="#248195"/><stop offset="1" stop-color="#3D9DB0"/></radialGradient><radialGradient id="paint24_radial" cx="0" cy="0" r="1" gradientUnits="userSpaceOnUse" gradientTransform="matrix(0 31 -31.8492 0 31.955 0)"><stop stop-color="#248195"/><stop offset="1" stop-color="#3D9DB0"/></radialGradient><radialGradient id="paint25_radial" cx="0" cy="0" r="1" gradientUnits="userSpaceOnUse" gradientTransform="matrix(0 31 -31.8492 0 31.955 0)"><stop stop-color="#248195"/><stop offset="1" stop-color="#3D9DB0"/></radialGradient><radialGradient id="paint26_radial" cx="0" cy="0" r="1" gradientUnits="userSpaceOnUse" gradientTransform="matrix(0 31 -31.8492 0 31.955 0)"><stop stop-color="#248195"/><stop offset="1" stop-color="#3D9DB0"/></radialGradient><radialGradient id="paint27_radial" cx="0" cy="0" r="1" gradientUnits="userSpaceOnUse" gradientTransform="matrix(0 31 -31.8492 0 31.955 0)"><stop stop-color="#248195"/><stop offset="1" stop-color="#3D9DB0"/></radialGradient><radialGradient id="paint28_radial" cx="0" cy="0" r="1" gradientUnits="userSpaceOnUse" gradientTransform="matrix(0 31 -31.8492 0 31.955 0)"><stop stop-color="#248195"/><stop offset="1" stop-color="#3D9DB0"/></radialGradient><radialGradient id="paint29_radial" cx="0" cy="0" r="1" gradientUnits="userSpaceOnUse" gradientTransform="matrix(0 31 -31.8492 0 31.955 0)"><stop stop-color="#248195"/><stop offset="1" stop-color="#3D9DB0"/></radialGradient><radialGradient id="paint30_radial" cx="0" cy="0" r="1" gradientUnits="userSpaceOnUse" gradientTransform="matrix(0 31 -31.8492 0 31.955 0)"><stop stop-color="#248195"/><stop offset="1" stop-color="#3D9DB0"/></radialGradient><radialGradient id="paint31_radial" cx="0" cy="0" r="1" gradientUnits="userSpaceOnUse" gradientTransform="matrix(0 31 -31.8492 0 31.955 0)"><stop stop-color="#248195"/><stop offset="1" stop-color="#3D9DB0"/></radialGradient><radialGradient id="paint32_radial" cx="0" cy="0" r="1" gradientUnits="userSpaceOnUse" gradientTransform="matrix(0 31 -31.8492 0 31.955 0)"><stop stop-color="#248195"/><stop offset="1" stop-color="#3D9DB0"/></radialGradient><radialGradient id="paint33_radial" cx="0" cy="0" r="1" gradientUnits="userSpaceOnUse" gradientTransform="matrix(0 31 -31.8492 0 31.955 0)"><stop stop-color="#248195"/><stop offset="1" stop-color="#3D9DB0"/></radialGradient><radialGradient id="paint34_radial" cx="0" cy="0" r="1" gradientUnits="userSpaceOnUse" gradientTransform="matrix(0 31 -31.8492 0 31.955 0)"><stop stop-color="#248195"/><stop offset="1" stop-color="#3D9DB0"/></radialGradient><radialGradient id="paint35_radial" cx="0" cy="0" r="1" gradientUnits="userSpaceOnUse" gradientTransform="matrix(0 31 -31.8492 0 31.955 0)"><stop stop-color="#248195"/><stop offset="1" stop-color="#3D9DB0"/></radialGradient><radialGradient id="paint36_radial" cx="0" cy="0" r="1" gradientUnits="userSpaceOnUse" gradientTransform="matrix(0 31 -31.8492 0 31.955 0)"><stop stop-color="#248195"/><stop offset="1" stop-color="#3D9DB0"/></radialGradient><radialGradient id="paint37_radial" cx="0" cy="0" r="1" gradientUnits="userSpaceOnUse" gradientTransform="matrix(0 31 -31.8492 0 31.955 0)"><stop stop-color="#248195"/><stop offset="1" stop-color="#3D9DB0"/></radialGradient><clipPath id="clip0"><path fill="#fff" d="M0 0h317.556v67H0z"/></clipPath></defs></svg>